{
	"asset":{
		"generator":"Khronos glTF Blender I/O v4.2.60",
		"version":"2.0"
	},
	"scene":0,
	"scenes":[
		{
			"name":"Scene",
			"nodes":[
				0
			]
		}
	],
	"nodes":[
		{
			"mesh":0,
			"name":"Buried Item"
		}
	],
	"materials":[
		{
			"doubleSided":true,
			"name":"Item",
			"pbrMetallicRoughness":{
				"baseColorTexture":{
					"index":0
				},
				"metallicFactor":0,
				"roughnessFactor":0.5
			}
		}
	],
	"meshes":[
		{
			"name":"Cone",
			"primitives":[
				{
					"attributes":{
						"POSITION":0,
						"NORMAL":1,
						"TEXCOORD_0":2
					},
					"indices":3,
					"material":0
				}
			]
		}
	],
	"textures":[
		{
			"sampler":0,
			"source":0
		}
	],
	"images":[
		{
			"mimeType":"image/png",
			"name":"color-atlas-gradient",
			"uri":"../../../materials/shared/color-atlas-gradient.png"
		}
	],
	"accessors":[
		{
			"bufferView":0,
			"componentType":5126,
			"count":71,
			"max":[
				0.5037186741828918,
				0,
				0.42848873138427734
			],
			"min":[
				-0.5037186741828918,
				-4.731690950166012e-08,
				-0.5296412110328674
			],
			"type":"VEC3"
		},
		{
			"bufferView":1,
			"componentType":5126,
			"count":71,
			"type":"VEC3"
		},
		{
			"bufferView":2,
			"componentType":5126,
			"count":71,
			"type":"VEC2"
		},
		{
			"bufferView":3,
			"componentType":5123,
			"count":210,
			"type":"SCALAR"
		}
	],
	"bufferViews":[
		{
			"buffer":0,
			"byteLength":852,
			"byteOffset":0,
			"target":34962
		},
		{
			"buffer":0,
			"byteLength":852,
			"byteOffset":852,
			"target":34962
		},
		{
			"buffer":0,
			"byteLength":568,
			"byteOffset":1704,
			"target":34962
		},
		{
			"buffer":0,
			"byteLength":420,
			"byteOffset":2272,
			"target":34963
		}
	],
	"samplers":[
		{
			"magFilter":9728,
			"minFilter":9984
		}
	],
	"buffers":[
		{
			"byteLength":2692,
			"uri":"buried_item.bin"
		}
	]
}
